solid 
 facet normal -0.000000e+00 -1.000000e+00  0.000000e+00
   outer loop
     vertex  2.286000e-01 -7.199211e-01  1.269992e-01
     vertex  2.166937e-01 -7.199211e-01  1.269992e-01
     vertex  2.166937e-01 -7.199211e-01 -6.350081e-02
   endloop
 endfacet
 facet normal  0.000000e+00 -1.000000e+00 -0.000000e+00
   outer loop
     vertex  2.286000e-01 -7.199211e-01  1.269992e-01
     vertex  2.166937e-01 -7.199211e-01 -6.350081e-02
     vertex  2.286000e-01 -7.199211e-01 -6.350081e-02
   endloop
 endfacet
 facet normal  0.000000e+00  0.000000e+00  1.000000e+00
   outer loop
     vertex  2.286000e-01 -2.627211e-01  1.269992e-01
     vertex  2.166937e-01 -7.199211e-01  1.269992e-01
     vertex  2.286000e-01 -7.199211e-01  1.269992e-01
   endloop
 endfacet
 facet normal  0.000000e+00  0.000000e+00  1.000000e+00
   outer loop
     vertex  2.166937e-01 -2.627211e-01  1.269992e-01
     vertex  2.286000e-01 -2.627211e-01  1.269992e-01
     vertex  2.286000e-01 -2.539898e-01  1.269992e-01
   endloop
 endfacet
 facet normal -0.000000e+00  0.000000e+00  1.000000e+00
   outer loop
     vertex  2.166937e-01 -2.627211e-01  1.269992e-01
     vertex  2.166937e-01 -7.199211e-01  1.269992e-01
     vertex  2.286000e-01 -2.627211e-01  1.269992e-01
   endloop
 endfacet
 facet normal  0.000000e+00  0.000000e+00  1.000000e+00
   outer loop
     vertex -2.286000e-01 -2.539898e-01  1.269992e-01
     vertex -2.286000e-01 -2.627211e-01  1.269992e-01
     vertex  2.166937e-01 -2.627211e-01  1.269992e-01
   endloop
 endfacet
 facet normal -0.000000e+00  0.000000e+00  1.000000e+00
   outer loop
     vertex -2.286000e-01 -2.539898e-01  1.269992e-01
     vertex  2.166937e-01 -2.627211e-01  1.269992e-01
     vertex  2.286000e-01 -2.539898e-01  1.269992e-01
   endloop
 endfacet
 facet normal -1.000000e+00  0.000000e+00  0.000000e+00
   outer loop
     vertex -2.286000e-01 -2.539898e-01 -1.778008e-01
     vertex -2.286000e-01 -2.627211e-01 -1.778008e-01
     vertex -2.286000e-01 -2.627211e-01  1.269992e-01
   endloop
 endfacet
 facet normal -1.000000e+00  0.000000e+00  0.000000e+00
   outer loop
     vertex -2.286000e-01 -2.539898e-01 -1.778008e-01
     vertex -2.286000e-01 -2.627211e-01  1.269992e-01
     vertex -2.286000e-01 -2.539898e-01  1.269992e-01
   endloop
 endfacet
 facet normal  1.000000e+00  5.201874e-07 -0.000000e+00
   outer loop
     vertex  2.286000e-01 -2.627211e-01 -6.350081e-02
     vertex  2.286000e-01 -2.539898e-01  1.269992e-01
     vertex  2.286000e-01 -2.627211e-01  1.269992e-01
   endloop
 endfacet
 facet normal  1.000000e+00  0.000000e+00 -3.973643e-08
   outer loop
     vertex  2.286000e-01 -2.627211e-01 -1.778008e-01
     vertex  2.286000e-01 -2.539898e-01 -1.778008e-01
     vertex  2.286000e-01 -2.627211e-01 -6.350081e-02
   endloop
 endfacet
 facet normal  1.000000e+00  9.934108e-09 -0.000000e+00
   outer loop
     vertex  2.286000e-01 -7.199211e-01 -6.350081e-02
     vertex  2.286000e-01 -2.627211e-01  1.269992e-01
     vertex  2.286000e-01 -7.199211e-01  1.269992e-01
   endloop
 endfacet
 facet normal  1.000000e+00  9.934108e-09  0.000000e+00
   outer loop
     vertex  2.286000e-01 -7.199211e-01 -6.350081e-02
     vertex  2.286000e-01 -2.627211e-01 -6.350081e-02
     vertex  2.286000e-01 -2.627211e-01  1.269992e-01
   endloop
 endfacet
 facet normal  1.000000e+00  5.201874e-07 -9.106160e-17
   outer loop
     vertex  2.286000e-01 -2.539898e-01 -1.778008e-01
     vertex  2.286000e-01 -2.539898e-01  1.269992e-01
     vertex  2.286000e-01 -2.627211e-01 -6.350081e-02
   endloop
 endfacet
 facet normal -1.214155e-16  0.000000e+00 -1.000000e+00
   outer loop
     vertex -2.286000e-01 -2.627211e-01 -1.778008e-01
     vertex -2.286000e-01 -2.539898e-01 -1.778008e-01
     vertex  2.286000e-01 -2.539898e-01 -1.778008e-01
   endloop
 endfacet
 facet normal -1.214155e-16  0.000000e+00 -1.000000e+00
   outer loop
     vertex -2.286000e-01 -2.627211e-01 -1.778008e-01
     vertex  2.286000e-01 -2.539898e-01 -1.778008e-01
     vertex  2.286000e-01 -2.627211e-01 -1.778008e-01
   endloop
 endfacet
 facet normal  4.986475e-16 -1.000000e+00  0.000000e+00
   outer loop
     vertex  2.166937e-01 -2.627211e-01 -6.350081e-02
     vertex -2.286000e-01 -2.627211e-01  1.269992e-01
     vertex -2.286000e-01 -2.627211e-01 -1.778008e-01
   endloop
 endfacet
 facet normal  4.856619e-16 -1.000000e+00  5.058974e-17
   outer loop
     vertex  2.166937e-01 -2.627211e-01 -6.350081e-02
     vertex -2.286000e-01 -2.627211e-01 -1.778008e-01
     vertex  2.286000e-01 -2.627211e-01 -1.778008e-01
   endloop
 endfacet
 facet normal -0.000000e+00 -1.000000e+00  0.000000e+00
   outer loop
     vertex  2.286000e-01 -2.627211e-01 -6.350081e-02
     vertex  2.166937e-01 -2.627211e-01 -6.350081e-02
     vertex  2.286000e-01 -2.627211e-01 -1.778008e-01
   endloop
 endfacet
 facet normal  4.986475e-16 -1.000000e+00 -7.265222e-32
   outer loop
     vertex  2.166937e-01 -2.627211e-01  1.269992e-01
     vertex -2.286000e-01 -2.627211e-01  1.269992e-01
     vertex  2.166937e-01 -2.627211e-01 -6.350081e-02
   endloop
 endfacet
 facet normal -4.856619e-16  1.000000e+00  0.000000e+00
   outer loop
     vertex  2.286000e-01 -2.539898e-01  1.269992e-01
     vertex -2.286000e-01 -2.539898e-01 -1.778008e-01
     vertex -2.286000e-01 -2.539898e-01  1.269992e-01
   endloop
 endfacet
 facet normal -4.856619e-16  1.000000e+00  4.422515e-32
   outer loop
     vertex  2.286000e-01 -2.539898e-01  1.269992e-01
     vertex  2.286000e-01 -2.539898e-01 -1.778008e-01
     vertex -2.286000e-01 -2.539898e-01 -1.778008e-01
   endloop
 endfacet
 facet normal  0.000000e+00  0.000000e+00 -1.000000e+00
   outer loop
     vertex  2.166937e-01 -7.199211e-01 -6.350081e-02
     vertex  2.286000e-01 -2.627211e-01 -6.350081e-02
     vertex  2.286000e-01 -7.199211e-01 -6.350081e-02
   endloop
 endfacet
 facet normal  0.000000e+00  0.000000e+00 -1.000000e+00
   outer loop
     vertex  2.166937e-01 -7.199211e-01 -6.350081e-02
     vertex  2.166937e-01 -2.627211e-01 -6.350081e-02
     vertex  2.286000e-01 -2.627211e-01 -6.350081e-02
   endloop
 endfacet
 facet normal -1.000000e+00 -3.642464e-16  1.456986e-16
   outer loop
     vertex  2.166937e-01 -2.627211e-01 -6.350081e-02
     vertex  2.166937e-01 -7.199211e-01 -6.350081e-02
     vertex  2.166937e-01 -7.199211e-01  1.269992e-01
   endloop
 endfacet
 facet normal -1.000000e+00 -3.642464e-16  1.456986e-16
   outer loop
     vertex  2.166937e-01 -2.627211e-01 -6.350081e-02
     vertex  2.166937e-01 -7.199211e-01  1.269992e-01
     vertex  2.166937e-01 -2.627211e-01  1.269992e-01
   endloop
 endfacet
endsolid
